<svg width="97" height="17" viewBox="0 0 97 17" fill="none" xmlns="http://www.w3.org/2000/svg">
<g clip-path="url(#clip0_4_59)">
<path d="M6.87891 16.1992C6.12109 16.1992 5.48828 16.1406 4.98047 16.0234C4.27734 15.875 3.76172 15.6445 3.43359 15.332C2.69922 13.7773 2.07031 12.0742 1.54688 10.2227C0.820312 7.66016 0.3125 5.01562 0.0234375 2.28906C0.375 1.77344 0.855469 1.375 1.46484 1.09375C2.07422 0.804687 2.75391 0.660156 3.50391 0.660156C4.62891 0.660156 5.51172 0.875 6.15234 1.30469C6.80078 1.73438 7.125 2.34766 7.125 3.14453C7.07031 3.73828 7.01953 4.60938 6.97266 5.75781C6.93359 6.90625 6.91406 7.94531 6.91406 8.875C6.91406 9.13281 6.9375 9.33594 6.98438 9.48438C7.03906 9.625 7.14844 9.69531 7.3125 9.69531C7.375 9.69531 7.45312 9.68359 7.54688 9.66016C7.53906 9.58984 7.53516 9.47266 7.53516 9.30859V8.89844C7.53516 7.76562 7.57422 6.46094 7.65234 4.98438C7.73047 3.5 7.82422 2.39453 7.93359 1.66797C8.64453 1.23047 9.48047 1.01172 10.4414 1.01172C11.4023 1.01172 12.1758 1.14453 12.7617 1.41016C13.4648 1.73828 13.8359 2.21875 13.875 2.85156C13.8359 3.61719 13.7617 4.37109 13.6523 5.11328C13.5508 5.85547 13.4258 6.71094 13.2773 7.67969C13.1289 8.64844 13.0352 9.28906 12.9961 9.60156C13.0586 9.63281 13.1406 9.64844 13.2422 9.64844C13.3438 9.64844 13.4375 9.60938 13.5234 9.53125C13.6094 9.45312 13.6797 9.26562 13.7344 8.96875C13.9766 7.71875 14.1758 6.40234 14.332 5.01953C14.4883 3.62891 14.5898 2.41797 14.6367 1.38672C15.3555 0.902344 16.3477 0.660156 17.6133 0.660156C18.6367 0.660156 19.4531 0.933594 20.0625 1.48047C20.6719 2.01953 20.9766 2.74609 20.9766 3.66016C20.9766 4.26953 20.6875 5.86719 20.1094 8.45312C19.8125 9.8125 19.5273 10.9766 19.2539 11.9453C18.9805 12.9062 18.7578 13.582 18.5859 13.9727C18.2266 14.7617 17.6875 15.332 16.9688 15.6836C16.2578 16.0273 15.3477 16.1992 14.2383 16.1992C13.793 16.1992 13.2773 16.1328 12.6914 16C12.1133 15.8672 11.6719 15.7188 11.3672 15.5547C11.2109 15.3125 11.0352 14.9453 10.8398 14.4531C10.6445 13.9609 10.5234 13.5898 10.4766 13.3398C10.1719 13.3477 10.0195 13.5117 10.0195 13.832C10.0195 14.082 10.1406 14.543 10.3828 15.2148C9.5625 15.8711 8.39453 16.1992 6.87891 16.1992ZM26.7891 0.882812H33.5508C33.7773 1.25781 33.9453 1.66797 34.0547 2.11328C34.1641 2.55078 34.2188 2.94531 34.2188 3.29688C34.2188 4.08594 34.0625 4.67969 33.75 5.07812C33.4453 5.47656 33.0156 5.67578 32.4609 5.67578H27.7383C27.4492 5.67578 27.3047 5.78906 27.3047 6.01562V6.10938C27.3047 6.15625 27.3125 6.1875 27.3281 6.20312H32.9297C33.0703 6.44531 33.1914 6.75 33.293 7.11719C33.3867 7.51562 33.4336 7.87109 33.4336 8.18359C33.4336 9.11328 33.2617 9.83984 32.918 10.3633H30.375C29.1875 10.3633 28.3828 10.4102 27.9609 10.5039C27.5391 10.5898 27.2773 10.6641 27.1758 10.7266C27.0742 10.7969 27.0234 10.8867 27.0234 10.9961C27.0234 11.1055 27.0781 11.1914 27.1875 11.2539C27.5938 11.1211 28.0195 11.0273 28.4648 10.9727C29.0508 10.918 29.6875 10.8906 30.375 10.8906H33.668C34.1445 11.5625 34.3828 12.3711 34.3828 13.3164C34.3828 13.8477 34.3164 14.3555 34.1836 14.8398C34.0508 15.3242 33.8516 15.7148 33.5859 16.0117H24.8086C23.8398 16.0117 23.0625 15.7773 22.4766 15.3086C21.8359 14.8086 21.5156 14.0742 21.5156 13.1055V1.96094C21.5156 1.58594 21.9453 1.3125 22.8047 1.14062C23.6641 0.96875 24.9922 0.882812 26.7891 0.882812ZM41.5195 7.66797C41.5508 7.69141 41.6406 7.70312 41.7891 7.70312C41.9375 7.70312 42.0508 7.64453 42.1289 7.52734C42.207 7.41016 42.2461 7.21875 42.2461 6.95312V6.53125C42.2461 6.25 42.2109 6.05078 42.1406 5.93359C42.0781 5.80859 41.9688 5.74609 41.8125 5.74609C41.6641 5.74609 41.5625 5.76172 41.5078 5.79297C41.5156 5.83203 41.5195 5.89844 41.5195 5.99219V7.66797ZM47.5664 10.3398L49.5938 12.4141C49.4531 13.6328 49.0664 14.5703 48.4336 15.2266C47.8086 15.8828 46.9414 16.2109 45.832 16.2109C44.9961 16.2109 44.2695 16.0117 43.6523 15.6133C42.8633 15.1133 42.2734 14.3164 41.8828 13.2227L41.4609 12.0742C41.1328 12.0664 40.7188 12.0234 40.2188 11.9453C40.1562 12.0078 40.125 12.0938 40.125 12.2031C40.125 12.4141 40.4414 12.5391 41.0742 12.5781L41.7422 14.2656V15.2617C40.8438 15.8945 39.6914 16.2109 38.2852 16.2109C37.2773 16.2109 36.4727 16.0039 35.8711 15.5898C35.2695 15.1758 34.9688 14.5742 34.9688 13.7852V2.65234C34.9688 2.30859 35.2852 1.97656 35.918 1.65625C36.5508 1.32812 37.3789 1.06641 38.4023 0.871094C39.4258 0.667969 40.4492 0.566406 41.4727 0.566406C43.8164 0.566406 45.6484 1.04688 46.9688 2.00781C48.3594 3.01562 49.0547 4.43359 49.0547 6.26172C49.0547 7.30859 48.7578 8.20703 48.1641 8.95703C47.5781 9.69922 46.8359 10.2148 45.9375 10.5039C45.9375 10.7539 46.0859 10.8789 46.3828 10.8789C46.6875 10.8789 47.082 10.6992 47.5664 10.3398ZM60.0234 0.671875C60.9609 0.671875 61.7734 0.925781 62.4609 1.43359C63.1484 1.94141 63.4922 2.66406 63.4922 3.60156V10.1172C63.4922 12.1016 62.8867 13.6328 61.6758 14.7109C60.4648 15.7812 58.7891 16.3164 56.6484 16.3164C54.5156 16.3164 52.8555 15.7891 51.668 14.7344C50.457 13.6797 49.8516 12.1406 49.8516 10.1172V1.76172C50.7734 1.02734 51.8398 0.660156 53.0508 0.660156C54.0664 0.660156 54.8711 0.929688 55.4648 1.46875C56.0586 2 56.3555 2.80859 56.3555 3.89453V10.7266C56.4414 10.7891 56.5391 10.8203 56.6484 10.8203C56.7656 10.8203 56.8477 10.793 56.8945 10.7383C56.9492 10.6758 56.9766 10.5625 56.9766 10.3984V3.88281C56.9766 3.39062 56.9531 3 56.9062 2.71094C56.8594 2.42187 56.7656 2.13281 56.625 1.84375C57.5625 1.0625 58.6953 0.671875 60.0234 0.671875ZM82.4648 6.10938C82.4648 7.36719 82.0938 8.41406 81.3516 9.25C80.5156 10.1875 79.293 10.8164 77.6836 11.1367C77.6836 11.4336 77.8164 11.582 78.082 11.582C78.5508 11.582 79.125 11.4336 79.8047 11.1367C80.4844 10.8398 81.0117 10.4883 81.3867 10.082C82.1289 10.8242 82.5 11.8047 82.5 13.0234C82.5 14.2344 82.1523 15.1875 81.457 15.8828H70.9219C70.3203 14.9844 70.0195 13.9922 70.0195 12.9062C70.0195 11.8125 70.2305 10.8945 70.6523 10.1523C72.1914 9.85547 73.5859 9.3125 74.8359 8.52344C76.0859 7.73438 76.7109 6.89844 76.7109 6.01562C76.7109 5.78125 76.6562 5.58984 76.5469 5.44141C76.4453 5.29297 76.3008 5.21875 76.1133 5.21875C75.7305 5.21875 75.5391 5.42188 75.5391 5.82812C75.5391 6.22656 75.6758 6.51953 75.9492 6.70703C75.5664 7.27734 74.9766 7.80078 74.1797 8.27734C73.3828 8.75391 72.6016 9.09766 71.8359 9.30859C70.4453 8.38672 69.75 7.14062 69.75 5.57031C69.75 4 70.3711 2.75391 71.6133 1.83203C72.7695 0.972656 74.25 0.542969 76.0547 0.542969C77.8672 0.542969 79.3672 1.01953 80.5547 1.97266C81.8281 3.00391 82.4648 4.38281 82.4648 6.10938ZM84.293 8.58203C84.0352 8.48828 83.832 8.31641 83.6836 8.06641C83.5352 7.81641 83.4609 7.54297 83.4609 7.24609C83.4609 7.19922 83.4766 7.03125 83.5078 6.74219C83.625 5.10156 83.8008 3.51953 84.0352 1.99609C84.1211 1.43359 84.2539 1.08594 84.4336 0.953125C84.6133 0.8125 84.9766 0.742188 85.5234 0.742188H94.5C94.9062 1.42188 95.1094 2.3125 95.1094 3.41406C95.1094 4.51562 94.875 5.39453 94.4062 6.05078C93.9219 5.75391 93.457 5.53125 93.0117 5.38281C92.3164 5.16406 91.5703 5.05469 90.7734 5.05469H89.4609L89.3906 5.58203H90.4805C92.0977 5.58203 93.4102 6 94.418 6.83594C95.5195 7.75781 96.0703 9.05469 96.0703 10.7266C96.0703 12.3984 95.4531 13.7305 94.2188 14.7227C92.9844 15.7148 91.293 16.2109 89.1445 16.2109C87.2305 16.2109 85.7305 15.8008 84.6445 14.9805C83.5586 14.1523 83.0156 13.1133 83.0156 11.8633C83.0156 10.8711 83.3438 10.0938 84 9.53125C84.6641 8.96875 85.4414 8.6875 86.332 8.6875C87.2227 8.6875 87.9727 8.94141 88.582 9.44922C89.2695 10.0352 89.6367 10.8164 89.6836 11.793C90.043 11.793 90.2227 11.625 90.2227 11.2891C90.2227 10.4609 89.8828 9.73438 89.2031 9.10938C88.5234 8.47656 87.5703 8.16016 86.3438 8.16016C85.6016 8.16016 84.918 8.30078 84.293 8.58203Z" fill="#FB6FA7"/>
<path d="M39 8.5C39 6.01472 36.9853 4 34.5 4C32.0147 4 30 6.01472 30 8.5C30 10.9853 32.0147 13 34.5 13C36.9853 13 39 10.9853 39 8.5Z" fill="#FB6FA7"/>
<path d="M33.7332 5.04713C34.4352 4.10586 35.4907 3.83099 36.4616 4.09548C37.5097 4.38072 38.4312 5.28097 38.7371 6.53468C38.753 6.59895 38.7667 6.66321 38.7781 6.72748C38.3364 6.57008 37.856 6.55795 37.4068 6.69288C36.7706 6.22224 35.9825 6.14314 35.282 6.4012C34.4045 6.725 33.7194 7.54615 33.5607 8.57937C33.3579 9.90229 34.1638 11.0908 35.3033 12.1013L35.4952 12.2674C35.3404 12.2782 35.1831 12.2539 35.0328 12.2219C34.9557 12.2053 34.8788 12.1868 34.8025 12.1665L34.537 12.0923C32.177 11.4284 30.597 10.3897 30.1436 8.83743C29.7817 7.59855 30.1298 6.35818 30.8951 5.58697C31.6039 4.87262 32.655 4.58292 33.7332 5.04713ZM34.5381 8.72916C34.7497 7.34889 36.3459 6.66865 37.1656 7.85314C37.1734 7.86415 37.1852 7.87163 37.1987 7.87393C37.212 7.87625 37.2257 7.87322 37.2368 7.86551C38.4119 7.033 39.6789 8.21799 39.4055 9.58738C39.2473 10.3817 38.5108 11.0408 37.1958 11.5649L36.9806 11.6488L36.8506 11.7022C36.7385 11.7463 36.6198 11.7813 36.5125 11.7626C36.4057 11.7438 36.3063 11.6697 36.2159 11.5906L36.0627 11.4522C34.9191 10.468 34.4109 9.56035 34.5381 8.72916Z" fill="#1E1E1E"/>
</g>
<defs>
<clipPath id="clip0_4_59">
<rect width="97" height="17" fill="white"/>
</clipPath>
</defs>
</svg>
